<svg width="5476" height="800" viewBox="0 0 5476 800" fill="none" xmlns="http://www.w3.org/2000/svg">
<path d="M1674.55 541.056C1808.24 541.056 1861.32 472.245 1861.32 359.205C1861.32 242.229 1805.28 176.375 1671.61 176.375H1656.85V424.08L1657.84 541.056H1674.55ZM1540.87 419.166C1540.87 312.019 1538.9 203.893 1532.02 119.36H1685.36C1889.83 119.36 1980.25 214.711 1980.25 358.216C1980.25 501.741 1890.8 597.081 1693.22 597.081H1658.82C1660.79 659.999 1663.74 716.025 1668.65 758.296H1526.12C1537.92 674.742 1540.87 542.035 1540.87 419.166Z" fill="#10344C"/>
<path d="M2180.9 701.282C2213.33 701.282 2249.7 683.592 2277.23 644.258L2278.21 488.956L2231.03 497.796C2141.57 514.507 2109.14 553.841 2109.14 610.846C2109.14 672.775 2135.68 701.282 2180.9 701.282ZM2281.15 702.261C2242.82 750.426 2196.62 768.125 2140.59 768.125C2054.08 768.125 2005.93 712.09 2005.93 629.524C2005.93 542.035 2062.94 484.042 2215.31 452.588L2278.21 439.812V427.027C2278.21 351.344 2245.77 318.901 2187.78 318.901C2139.61 318.901 2092.42 334.633 2046.22 365.098L2044.26 363.14V294.329C2086.53 273.683 2149.44 256.973 2200.55 256.973C2327.36 256.973 2384.37 315.955 2384.37 450.62V565.628C2384.37 658.022 2386.33 694.4 2396.16 758.287H2286.08L2281.15 702.261Z" fill="#10344C"/>
<path d="M2485.13 515.5C2485.13 444.721 2485.13 358.221 2473.33 266.806H2578.51L2584.4 354.285H2586.37C2609.96 287.452 2643.38 255.009 2710.23 259.924V354.285L2708.26 356.253C2646.33 349.371 2618.81 358.221 2590.31 394.589V485.025C2590.31 575.461 2593.25 666.876 2604.07 758.291H2477.27C2483.16 689.48 2485.13 590.204 2485.13 515.5Z" fill="#10344C"/>
<path d="M2904.37 701.282C2936.81 701.282 2973.18 683.592 3000.71 644.258L3001.69 488.956L2954.52 497.796C2865.06 514.507 2832.63 553.841 2832.63 610.846C2832.63 672.775 2859.16 701.282 2904.37 701.282ZM3004.64 702.261C2966.3 750.426 2920.1 768.125 2864.08 768.125C2777.57 768.125 2729.4 712.09 2729.4 629.524C2729.4 542.035 2786.42 484.042 2938.78 452.588L3001.69 439.812V427.027C3001.69 351.344 2969.26 318.901 2911.26 318.901C2863.09 318.901 2815.9 334.633 2769.71 365.098L2767.74 363.14V294.329C2810.01 273.683 2872.92 256.973 2924.04 256.973C3050.84 256.973 3107.85 315.955 3107.85 450.62V565.628C3107.85 658.022 3109.82 694.4 3119.65 758.287H3009.55L3004.64 702.261Z" fill="#10344C"/>
<path d="M3170.96 510.581C3170.96 354.291 3273.18 258.94 3411.79 258.94C3444.22 258.94 3476.67 263.855 3506.15 274.672L3509.1 341.515L3507.13 343.483C3477.64 326.762 3442.26 316.934 3413.76 316.934C3332.16 316.934 3282.04 385.744 3282.04 510.581C3282.04 646.235 3352.81 696.358 3427.52 696.358C3457.99 696.358 3482.56 690.474 3517.95 675.721L3520.9 677.689L3517.95 746.5C3485.51 761.243 3450.13 766.157 3417.68 766.157C3275.16 766.157 3170.96 689.476 3170.96 510.581Z" fill="#10344C"/>
<path d="M3795.64 328.732C3750.42 328.732 3710.12 375.918 3686.53 440.793V759.277H3571.51C3577.42 658.024 3581.35 548.919 3581.35 430.965C3581.35 301.204 3579.38 219.627 3572.5 99.6955H3686.53V358.218C3717.98 288.429 3766.15 257.963 3832 257.963C3921.45 257.963 3966.67 310.063 3966.67 445.708V584.308C3966.67 655.077 3968.64 701.284 3973.55 758.289H3860.51V441.772C3860.51 358.218 3838.89 328.732 3795.64 328.732Z" fill="#10344C"/>
<path d="M4057.21 544.986V494.854C4057.21 418.182 4055.25 362.156 4049.35 266.806H4164.35V560.709C4164.35 661.952 4189.9 692.427 4235.12 692.427C4270.51 692.427 4301.97 677.684 4340.3 629.519V486.004C4340.3 413.268 4339.32 339.543 4332.44 266.806H4447.45V591.183C4447.45 658.027 4450.4 704.233 4457.29 758.291H4347.18L4343.26 679.661C4305.9 737.645 4257.74 768.12 4196.79 768.12C4115.21 768.12 4057.21 717.988 4057.21 544.986Z" fill="#10344C"/>
<path d="M4559.32 586.274V315.955H4498.38V267.79C4562.27 260.908 4619.28 221.593 4643.85 161.632H4666.47V266.801H4824.72V315.955H4666.47V584.306C4666.47 685.55 4690.05 706.196 4742.15 706.196C4771.64 706.196 4798.17 700.293 4824.72 689.485L4826.68 690.474V748.458C4789.33 760.264 4752.96 768.125 4710.7 768.125C4614.37 768.125 4559.32 723.886 4559.32 586.274Z" fill="#10344C"/>
<path d="M5143.31 494.859C5144.29 355.27 5111.86 305.147 5047.96 305.147C4986.03 305.147 4948.68 366.087 4947.7 494.859H5143.31ZM4835.64 513.528C4835.64 360.184 4919.2 256.973 5048.95 256.973C5170.84 256.973 5243.58 340.527 5243.58 470.278C5243.58 496.817 5242.59 522.378 5239.64 544.991L4949.66 545.97C4957.53 665.893 5000.78 706.196 5079.42 706.196C5117.76 706.196 5163.96 694.4 5219 662.946L5221.94 665.893L5219 729.789C5168.86 754.361 5112.84 768.125 5064.67 768.125C4921.16 768.125 4835.64 676.71 4835.64 513.528Z" fill="#10344C"/>
<path d="M183.616 701.001C183.616 701.001 178.511 372.403 401.702 295.845C401.702 295.845 143.312 145.229 29.5019 334.599C-88.044 530.186 183.616 701.001 183.616 701.001Z" fill="#10344C"/>
<path d="M887.396 800C887.396 800 1262.66 228.668 804.498 50.9707C404.447 -104.208 159.707 144.439 159.707 144.439C159.707 144.439 671.268 92.415 887.396 800Z" fill="#10344C"/>
<path d="M5342.41 360.866V282.874H5318.48V271.704H5378.52V282.874H5354.98V360.866H5342.41ZM5391.28 360.866V271.704H5402.85L5436.16 318.978H5430.58L5463.69 271.704H5475.26V360.866H5462.69V287.063L5467.08 288.459L5433.97 334.935H5432.57L5400.06 288.459L5403.85 287.063V360.866H5391.28Z" fill="#10344C"/>
</svg>
